<svg width="17" height="17" viewBox="0 0 17 17" fill="none" xmlns="http://www.w3.org/2000/svg">
<g clip-path="url(#clip0_1_174)">
<path d="M16.25 8.10999C16.25 3.82874 12.7812 0.359985 8.5 0.359985C4.21875 0.359985 0.75 3.82874 0.75 8.10999C0.75 11.9781 3.58406 15.1844 7.28906 15.7662V10.3503H5.32031V8.10999H7.28906V6.40249C7.28906 4.4603 8.44531 3.38749 10.2163 3.38749C11.0644 3.38749 11.9513 3.53874 11.9513 3.53874V5.44499H10.9738C10.0113 5.44499 9.71094 6.04249 9.71094 6.6553V8.10999H11.8603L11.5166 10.3503H9.71094V15.7662C13.4159 15.1844 16.25 11.9781 16.25 8.10999Z" fill="#0F0F19"/>
</g>
<defs>
<clipPath id="clip0_1_174">
<rect width="16" height="16" fill="white" transform="translate(0.5 0.109985)"/>
</clipPath>
</defs>
</svg>
