<svg width="80" height="81" viewBox="0 0 80 81" fill="none" xmlns="http://www.w3.org/2000/svg">
<rect width="80" height="81" fill="#F5F5F5"/>
<g id="portal.altschoolafrica.com by html.to.design &#226;&#157;&#164;&#239;&#184;&#143; FREE version - 14/12/2023, 14:55:12 GMT-8">
<g id="Section &#226;&#134;&#146; Section">
<rect width="960" height="1080" transform="translate(-25 -24.5)" fill="#FFF6EE"/>
<g id="div.style_logoWrapper__AwEwT">
<g id="Link &#226;&#134;&#146; SVG">
<path id="Vector" d="M17.835 21.707H12.422L7.60999 36.722H10.51L11.842 32.598H18.502L19.898 36.722H22.798L17.836 21.707H17.835ZM12.615 30.213L15.129 22.458L17.707 30.213H12.616H12.615ZM26.767 36.743V21.708H24.103V36.745H26.766L26.767 36.743ZM32.638 25.659V21.707H29.975V25.659H28.364V27.743H28.621C28.621 27.743 29.975 27.743 29.975 29.225V34.015C29.9735 34.3737 30.0431 34.7291 30.1797 35.0608C30.3162 35.3925 30.5171 35.6939 30.7707 35.9476C31.0243 36.2013 31.3256 36.4023 31.6572 36.5389C31.9889 36.6756 32.3443 36.7453 32.703 36.744H34.529V34.38H33.476C33.2549 34.3761 33.044 34.2866 32.8877 34.1303C32.7314 33.974 32.6418 33.763 32.638 33.542V29.418C32.638 27.828 29.266 27.742 28.708 27.742H34.528V25.658L32.638 25.659ZM16.074 48.445C16.074 48.445 13.195 47.779 13.11 47.758C12.143 47.5 11.327 47.028 11.327 46.039C11.327 44.965 12.637 44.084 14.291 44.084C16.311 44.084 17.449 45.33 17.449 46.554H20.263C20.263 43.934 18.223 41.721 14.291 41.721C10.961 41.721 8.51298 43.504 8.51298 46.061C8.51298 48.703 10.188 49.971 12.637 50.529C12.637 50.529 15.537 51.195 15.601 51.216C16.718 51.496 17.642 52.054 17.642 53.15C17.642 54.503 15.967 55.362 14.205 55.212C11.821 55.018 10.94 53.45 10.94 52.333H8.14699C8.14699 54.783 10.188 57.489 14.248 57.596C17.298 57.661 20.456 55.986 20.456 53.15C20.456 50.529 18.652 49.068 16.074 48.445ZM27.301 55.083C25.604 55.083 24.702 53.472 24.702 51.624C24.702 49.755 25.819 48.166 27.28 48.166C28.44 48.166 29.363 49.026 29.686 50.206H32.564C32.092 47.436 29.879 45.803 27.258 45.803C24.315 45.803 21.759 48.381 21.91 51.968C22.038 55.319 24.444 57.424 27.323 57.424C30.008 57.424 32.006 55.642 32.521 53.214H29.557C29.321 54.181 28.461 55.083 27.301 55.083ZM40.096 45.846C38.464 45.975 37.067 47.672 37.046 50.658C37.067 49.175 37.733 48.102 39.258 48.102C40.934 48.102 41.471 49.347 41.471 50.722V57.188H44.156V49.82C44.156 47.242 42.029 45.696 40.096 45.846ZM34.382 42.151V57.188H37.046V42.151H34.382ZM51.386 45.803C48.529 45.803 45.908 47.93 45.908 51.624C45.908 55.319 48.486 57.403 51.386 57.424C54.307 57.403 56.886 55.298 56.886 51.624C56.886 47.93 54.243 45.803 51.386 45.803ZM51.386 55.062C49.968 55.062 48.593 53.944 48.593 51.624C48.593 49.434 49.947 48.187 51.386 48.166C52.846 48.187 54.2 49.455 54.2 51.624C54.2 53.944 52.825 55.062 51.386 55.062ZM63.763 45.802C60.906 45.802 58.285 47.93 58.285 51.624C58.285 55.319 60.863 57.403 63.763 57.424C66.685 57.403 69.263 55.298 69.263 51.624C69.263 47.93 66.62 45.803 63.763 45.803V45.802ZM63.763 55.062C62.345 55.062 60.971 53.944 60.971 51.624C60.971 49.434 62.324 48.187 63.763 48.166C65.223 48.187 66.577 49.455 66.577 51.624C66.577 53.944 65.202 55.062 63.763 55.062ZM73.82 57.188V42.151H71.156V57.188H73.82ZM73.852 33.463H37.407V36.723H73.852V33.463Z" fill="black"/>
</g>
</g>
</g>
</g>
</svg>
