<svg width="17" height="17" viewBox="0 0 17 17" fill="none" xmlns="http://www.w3.org/2000/svg">
<rect width="17" height="17" fill="#F5F5F5"/>
<g id="portal.altschoolafrica.com by html.to.design &#226;&#157;&#164;&#239;&#184;&#143; FREE version - 14/12/2023, 14:55:12 GMT-8">
<g id="Section &#226;&#134;&#146; Section">
<rect width="960" height="1080" transform="translate(-456 -938.5)" fill="#FFF6EE"/>
<g id="Footer">
<g id="Section">
<g id="Link">
<g id="SVG">
<path id="Vector" d="M8.49995 4.90535C6.72651 4.90535 5.29526 6.3366 5.29526 8.11003C5.29526 9.88347 6.72651 11.3147 8.49995 11.3147C10.2734 11.3147 11.7046 9.88347 11.7046 8.11003C11.7046 6.3366 10.2734 4.90535 8.49995 4.90535ZM8.49995 10.1928C7.35308 10.1928 6.41714 9.25691 6.41714 8.11003C6.41714 6.96316 7.35308 6.02722 8.49995 6.02722C9.64683 6.02722 10.5828 6.96316 10.5828 8.11003C10.5828 9.25691 9.64683 10.1928 8.49995 10.1928ZM11.8359 4.02722C11.4218 4.02722 11.0875 4.3616 11.0875 4.77566C11.0875 5.18972 11.4218 5.5241 11.8359 5.5241C12.25 5.5241 12.5843 5.19129 12.5843 4.77566C12.5845 4.67734 12.5652 4.57996 12.5276 4.4891C12.49 4.39824 12.4349 4.31568 12.3654 4.24616C12.2959 4.17664 12.2133 4.12151 12.1225 4.08394C12.0316 4.04637 11.9342 4.0271 11.8359 4.02722ZM14.7468 8.11003C14.7468 7.24753 14.7546 6.39285 14.7062 5.53191C14.6578 4.53191 14.4296 3.64441 13.6984 2.91316C12.9656 2.18035 12.0796 1.95379 11.0796 1.90535C10.2171 1.85691 9.36245 1.86472 8.50151 1.86472C7.63901 1.86472 6.78433 1.85691 5.92339 1.90535C4.92339 1.95379 4.03589 2.18191 3.30464 2.91316C2.57183 3.64597 2.34526 4.53191 2.29683 5.53191C2.24839 6.39441 2.2562 7.2491 2.2562 8.11003C2.2562 8.97097 2.24839 9.82722 2.29683 10.6882C2.34526 11.6882 2.57339 12.5757 3.30464 13.3069C4.03745 14.0397 4.92339 14.2663 5.92339 14.3147C6.78589 14.3632 7.64058 14.3553 8.50151 14.3553C9.36401 14.3553 10.2187 14.3632 11.0796 14.3147C12.0796 14.2663 12.9671 14.0382 13.6984 13.3069C14.4312 12.5741 14.6578 11.6882 14.7062 10.6882C14.7562 9.82722 14.7468 8.97254 14.7468 8.11003ZM13.3718 11.7944C13.2578 12.0788 13.1203 12.2913 12.9 12.51C12.6796 12.7303 12.4687 12.8678 12.1843 12.9819C11.3625 13.3085 9.41089 13.235 8.49995 13.235C7.58901 13.235 5.63589 13.3085 4.81401 12.9835C4.52964 12.8694 4.31714 12.7319 4.09839 12.5116C3.87808 12.2913 3.74058 12.0803 3.62651 11.796C3.30151 10.9725 3.37495 9.02097 3.37495 8.11003C3.37495 7.1991 3.30151 5.24597 3.62651 4.4241C3.74058 4.13972 3.87808 3.92722 4.09839 3.70847C4.3187 3.48972 4.52964 3.35066 4.81401 3.2366C5.63589 2.9116 7.58901 2.98504 8.49995 2.98504C9.41089 2.98504 11.364 2.9116 12.1859 3.2366C12.4703 3.35066 12.6828 3.48816 12.9015 3.70847C13.1218 3.92879 13.2593 4.13972 13.3734 4.4241C13.6984 5.24597 13.625 7.1991 13.625 8.11003C13.625 9.02097 13.6984 10.9725 13.3718 11.7944Z" fill="#0F0F19"/>
</g>
</g>
</g>
</g>
</g>
</g>
</svg>
